<svg width="762" height="1526" viewBox="0 0 762 1526" fill="none" xmlns="http://www.w3.org/2000/svg">
<path d="M368.848 1C374.348 36.3333 458.148 119 529.348 167C618.348 227 766.348 346 757.848 434C730.898 713.012 416.01 634.675 314.348 452C282.348 394.5 288.516 380.322 314.348 350C354.016 303.437 415.348 402 423.848 462C470.02 787.917 -72.6383 737.562 12.348 1120C23.7162 1171.16 124.753 1486.77 223.847 1467.5C247.347 1398.83 296.448 1269.9 304.848 1303.5C315.348 1345.5 283.848 1479.5 274.848 1479.5C265.848 1479.5 331.348 1253.5 357.848 1262.5C384.348 1271.5 354.348 1467.5 338.348 1467.5C322.348 1467.5 407.348 1194 440.848 1208C474.348 1222 567.848 1455.5 560.848 1467.5C553.848 1479.5 486.848 1266 523.848 1275C560.848 1284 654.348 1481.5 634.848 1467.5C615.348 1453.5 560.348 1316 577.348 1303.5C594.348 1291 692.848 1476.5 675.348 1467.5C657.848 1458.5 594.348 1292.5 590.848 1245C587.348 1197.5 456.848 1116 440.848 1086C424.848 1056 463.348 1035.5 461.848 1047.5C460.348 1059.5 317.348 1176 304.848 1192C292.348 1208 294.348 1275 304.848 1275C313.248 1275 315.348 1068 315.348 964.5C336.014 917.833 373.448 823.5 357.848 819.5C342.248 815.5 358.681 954.5 368.848 1024.5C386.348 937.5 418.548 763.5 407.348 763.5C396.148 763.5 415.681 928.167 426.848 1010.5L440.848 964.5L461.848 1010.5C467.848 935.167 481.248 782.4 486.848 774C492.448 765.6 505.514 879.833 511.348 938C519.514 893.667 538.348 807.9 548.348 819.5C558.348 831.1 560.848 1108 560.848 1245C534.848 1212.67 478.648 1148 461.848 1148C440.848 1148 338.348 1210 338.348 1227.5C338.348 1245 259.347 1508.5 246.847 1494C234.347 1479.5 661.348 1465 691.348 1479.5C721.348 1494 766.664 1542.78 758.348 1515" stroke="black" stroke-width="5"/>
</svg>
